<mxfile host="app.diagrams.net" modified="2023-12-05T15:05:29.654Z" agent="Mozilla/5.0 (Windows NT 10.0; Win64; x64) AppleWebKit/537.36 (KHTML, like Gecko) Chrome/119.0.0.0 Safari/537.36" etag="4WqV5K2EenH0_IcNYcpl" version="22.1.5" type="device">
  <diagram name="PÃ¡gina-1" id="imq4ybTBpQTWPfEJMHMX">
    <mxGraphModel dx="1195" dy="660" grid="1" gridSize="10" guides="1" tooltips="1" connect="1" arrows="1" fold="1" page="1" pageScale="1" pageWidth="827" pageHeight="1169" math="0" shadow="0">
      <root>
        <mxCell id="0" />
        <mxCell id="1" parent="0" />
        <mxCell id="NGiJdgNhYvPCoxzRlDX6-26" value="" style="endArrow=classic;html=1;rounded=0;exitX=1;exitY=0.5;exitDx=0;exitDy=0;entryX=1;entryY=0.5;entryDx=0;entryDy=0;strokeWidth=3;strokeColor=#990000;fillColor=#d5e8d4;entryPerimeter=0;" parent="1" source="NGiJdgNhYvPCoxzRlDX6-8" target="NGiJdgNhYvPCoxzRlDX6-15" edge="1">
          <mxGeometry width="50" height="50" relative="1" as="geometry">
            <mxPoint x="360" y="440" as="sourcePoint" />
            <mxPoint x="410" y="390" as="targetPoint" />
          </mxGeometry>
        </mxCell>
        <mxCell id="NGiJdgNhYvPCoxzRlDX6-27" value="" style="endArrow=classic;html=1;rounded=0;exitX=1;exitY=0.5;exitDx=0;exitDy=0;entryX=0;entryY=0.5;entryDx=0;entryDy=0;fillColor=#dae8fc;strokeColor=#6c8ebf;strokeWidth=3;" parent="1" source="NGiJdgNhYvPCoxzRlDX6-1" target="NGiJdgNhYvPCoxzRlDX6-17" edge="1">
          <mxGeometry width="50" height="50" relative="1" as="geometry">
            <mxPoint x="490" y="420" as="sourcePoint" />
            <mxPoint x="540" y="370" as="targetPoint" />
          </mxGeometry>
        </mxCell>
        <mxCell id="NGiJdgNhYvPCoxzRlDX6-28" value="" style="endArrow=classic;html=1;rounded=0;exitX=1;exitY=0.5;exitDx=0;exitDy=0;entryX=0;entryY=0.5;entryDx=0;entryDy=0;fillColor=#dae8fc;strokeColor=#6c8ebf;strokeWidth=3;" parent="1" source="NGiJdgNhYvPCoxzRlDX6-1" target="NGiJdgNhYvPCoxzRlDX6-16" edge="1">
          <mxGeometry width="50" height="50" relative="1" as="geometry">
            <mxPoint x="490" y="420" as="sourcePoint" />
            <mxPoint x="540" y="370" as="targetPoint" />
          </mxGeometry>
        </mxCell>
        <mxCell id="-lw_jj8xd7Me2r0oytsQ-8" style="edgeStyle=orthogonalEdgeStyle;rounded=0;orthogonalLoop=1;jettySize=auto;html=1;exitX=1;exitY=0.5;exitDx=0;exitDy=0;entryX=0.054;entryY=0.459;entryDx=0;entryDy=0;entryPerimeter=0;fillColor=#dae8fc;strokeColor=#6c8ebf;strokeWidth=3;" parent="1" source="-lw_jj8xd7Me2r0oytsQ-2" target="NGiJdgNhYvPCoxzRlDX6-1" edge="1">
          <mxGeometry relative="1" as="geometry" />
        </mxCell>
        <mxCell id="-lw_jj8xd7Me2r0oytsQ-9" style="rounded=0;orthogonalLoop=1;jettySize=auto;html=1;exitX=1;exitY=0.5;exitDx=0;exitDy=0;entryX=0;entryY=0.5;entryDx=0;entryDy=0;exitPerimeter=0;fillColor=#dae8fc;strokeColor=#6c8ebf;strokeWidth=3;" parent="1" source="NGiJdgNhYvPCoxzRlDX6-13" target="-lw_jj8xd7Me2r0oytsQ-3" edge="1">
          <mxGeometry relative="1" as="geometry" />
        </mxCell>
        <mxCell id="-lw_jj8xd7Me2r0oytsQ-10" style="rounded=0;orthogonalLoop=1;jettySize=auto;html=1;exitX=1;exitY=0.5;exitDx=0;exitDy=0;exitPerimeter=0;entryX=0;entryY=0.5;entryDx=0;entryDy=0;fillColor=#dae8fc;strokeColor=#6c8ebf;strokeWidth=3;" parent="1" source="NGiJdgNhYvPCoxzRlDX6-13" target="-lw_jj8xd7Me2r0oytsQ-4" edge="1">
          <mxGeometry relative="1" as="geometry" />
        </mxCell>
        <mxCell id="-lw_jj8xd7Me2r0oytsQ-11" style="rounded=0;orthogonalLoop=1;jettySize=auto;html=1;exitX=1;exitY=0.5;exitDx=0;exitDy=0;exitPerimeter=0;entryX=0;entryY=0.5;entryDx=0;entryDy=0;fillColor=#dae8fc;strokeColor=#6c8ebf;strokeWidth=3;" parent="1" source="NGiJdgNhYvPCoxzRlDX6-14" target="-lw_jj8xd7Me2r0oytsQ-5" edge="1">
          <mxGeometry relative="1" as="geometry" />
        </mxCell>
        <mxCell id="-lw_jj8xd7Me2r0oytsQ-12" style="rounded=0;orthogonalLoop=1;jettySize=auto;html=1;exitX=1;exitY=0.5;exitDx=0;exitDy=0;exitPerimeter=0;fillColor=#dae8fc;strokeColor=#6c8ebf;strokeWidth=3;" parent="1" source="NGiJdgNhYvPCoxzRlDX6-14" target="-lw_jj8xd7Me2r0oytsQ-6" edge="1">
          <mxGeometry relative="1" as="geometry" />
        </mxCell>
        <mxCell id="-lw_jj8xd7Me2r0oytsQ-14" style="edgeStyle=orthogonalEdgeStyle;rounded=0;orthogonalLoop=1;jettySize=auto;html=1;exitX=0;exitY=0.5;exitDx=0;exitDy=0;entryX=1;entryY=0.5;entryDx=0;entryDy=0;strokeWidth=3;strokeColor=#990000;fillColor=#d5e8d4;" parent="1" source="NGiJdgNhYvPCoxzRlDX6-18" target="-lw_jj8xd7Me2r0oytsQ-1" edge="1">
          <mxGeometry relative="1" as="geometry" />
        </mxCell>
        <mxCell id="NGiJdgNhYvPCoxzRlDX6-6" value="" style="group" parent="1" vertex="1" connectable="0">
          <mxGeometry x="160" y="140" width="50" height="50" as="geometry" />
        </mxCell>
        <mxCell id="NGiJdgNhYvPCoxzRlDX6-1" value="" style="ellipse;whiteSpace=wrap;html=1;aspect=fixed;fillColor=#A9C4EB;strokeColor=#004C99;" parent="NGiJdgNhYvPCoxzRlDX6-6" vertex="1">
          <mxGeometry width="42.857142857142854" height="42.857142857142854" as="geometry" />
        </mxCell>
        <mxCell id="NGiJdgNhYvPCoxzRlDX6-4" value="" style="endArrow=none;html=1;rounded=0;exitX=0;exitY=1;exitDx=0;exitDy=0;entryX=1;entryY=0;entryDx=0;entryDy=0;strokeColor=#004C99;" parent="NGiJdgNhYvPCoxzRlDX6-6" source="NGiJdgNhYvPCoxzRlDX6-1" target="NGiJdgNhYvPCoxzRlDX6-1" edge="1">
          <mxGeometry width="50" height="50" relative="1" as="geometry">
            <mxPoint x="143.75" y="112.5" as="sourcePoint" />
            <mxPoint x="175" y="81.25" as="targetPoint" />
          </mxGeometry>
        </mxCell>
        <mxCell id="NGiJdgNhYvPCoxzRlDX6-5" value="" style="endArrow=none;html=1;rounded=0;exitX=0;exitY=0;exitDx=0;exitDy=0;entryX=1;entryY=1;entryDx=0;entryDy=0;strokeColor=#004C99;" parent="NGiJdgNhYvPCoxzRlDX6-6" source="NGiJdgNhYvPCoxzRlDX6-1" target="NGiJdgNhYvPCoxzRlDX6-1" edge="1">
          <mxGeometry width="50" height="50" relative="1" as="geometry">
            <mxPoint x="143.75" y="112.5" as="sourcePoint" />
            <mxPoint x="175" y="81.25" as="targetPoint" />
          </mxGeometry>
        </mxCell>
        <mxCell id="NGiJdgNhYvPCoxzRlDX6-11" value="TOPIC&lt;br&gt;&lt;b&gt;vendas&lt;/b&gt;" style="text;html=1;strokeColor=none;fillColor=none;align=center;verticalAlign=middle;whiteSpace=wrap;rounded=0;" parent="1" vertex="1">
          <mxGeometry x="150" y="190" width="60" height="30" as="geometry" />
        </mxCell>
        <mxCell id="NGiJdgNhYvPCoxzRlDX6-19" value="" style="group" parent="1" vertex="1" connectable="0">
          <mxGeometry x="270" y="340" width="80" height="40" as="geometry" />
        </mxCell>
        <mxCell id="NGiJdgNhYvPCoxzRlDX6-15" value="" style="strokeWidth=2;html=1;shape=mxgraph.flowchart.direct_data;whiteSpace=wrap;fillColor=#fff2cc;strokeColor=#d6b656;" parent="NGiJdgNhYvPCoxzRlDX6-19" vertex="1">
          <mxGeometry width="80" height="40" as="geometry" />
        </mxCell>
        <mxCell id="NGiJdgNhYvPCoxzRlDX6-18" value="&lt;b&gt;resumo&lt;/b&gt;" style="text;html=1;strokeColor=none;fillColor=none;align=center;verticalAlign=middle;whiteSpace=wrap;rounded=0;" parent="NGiJdgNhYvPCoxzRlDX6-19" vertex="1">
          <mxGeometry y="5" width="70" height="30" as="geometry" />
        </mxCell>
        <mxCell id="NGiJdgNhYvPCoxzRlDX6-20" value="" style="group" parent="1" vertex="1" connectable="0">
          <mxGeometry x="400" y="200" width="80" height="40" as="geometry" />
        </mxCell>
        <mxCell id="NGiJdgNhYvPCoxzRlDX6-14" value="" style="strokeWidth=2;html=1;shape=mxgraph.flowchart.direct_data;whiteSpace=wrap;fillColor=#fff2cc;strokeColor=#d6b656;" parent="NGiJdgNhYvPCoxzRlDX6-20" vertex="1">
          <mxGeometry width="80" height="40" as="geometry" />
        </mxCell>
        <mxCell id="NGiJdgNhYvPCoxzRlDX6-17" value="&lt;b&gt;casa&lt;/b&gt;" style="text;html=1;strokeColor=none;fillColor=none;align=center;verticalAlign=middle;whiteSpace=wrap;rounded=0;" parent="NGiJdgNhYvPCoxzRlDX6-20" vertex="1">
          <mxGeometry y="5" width="70" height="30" as="geometry" />
        </mxCell>
        <mxCell id="NGiJdgNhYvPCoxzRlDX6-21" value="" style="group" parent="1" vertex="1" connectable="0">
          <mxGeometry x="400" y="80" width="80" height="40" as="geometry" />
        </mxCell>
        <mxCell id="NGiJdgNhYvPCoxzRlDX6-13" value="" style="strokeWidth=2;html=1;shape=mxgraph.flowchart.direct_data;whiteSpace=wrap;fillColor=#fff2cc;strokeColor=#d6b656;" parent="NGiJdgNhYvPCoxzRlDX6-21" vertex="1">
          <mxGeometry width="80" height="40" as="geometry" />
        </mxCell>
        <mxCell id="NGiJdgNhYvPCoxzRlDX6-16" value="&lt;b&gt;alimentar&lt;/b&gt;" style="text;html=1;strokeColor=none;fillColor=none;align=center;verticalAlign=middle;whiteSpace=wrap;rounded=0;" parent="NGiJdgNhYvPCoxzRlDX6-21" vertex="1">
          <mxGeometry y="5" width="70" height="30" as="geometry" />
        </mxCell>
        <mxCell id="NGiJdgNhYvPCoxzRlDX6-24" value="" style="group" parent="1" vertex="1" connectable="0">
          <mxGeometry x="550" y="340" width="60" height="80" as="geometry" />
        </mxCell>
        <mxCell id="NGiJdgNhYvPCoxzRlDX6-7" value="" style="group" parent="NGiJdgNhYvPCoxzRlDX6-24" vertex="1" connectable="0">
          <mxGeometry x="10" width="40" height="40" as="geometry" />
        </mxCell>
        <mxCell id="NGiJdgNhYvPCoxzRlDX6-8" value="" style="ellipse;whiteSpace=wrap;html=1;aspect=fixed;fillColor=#f8cecc;strokeColor=#990000;" parent="NGiJdgNhYvPCoxzRlDX6-7" vertex="1">
          <mxGeometry width="40" height="40" as="geometry" />
        </mxCell>
        <mxCell id="NGiJdgNhYvPCoxzRlDX6-9" value="" style="endArrow=none;html=1;rounded=0;exitX=0;exitY=1;exitDx=0;exitDy=0;entryX=1;entryY=0;entryDx=0;entryDy=0;strokeColor=#990000;" parent="NGiJdgNhYvPCoxzRlDX6-7" source="NGiJdgNhYvPCoxzRlDX6-8" target="NGiJdgNhYvPCoxzRlDX6-8" edge="1">
          <mxGeometry width="50" height="50" relative="1" as="geometry">
            <mxPoint x="115" y="90" as="sourcePoint" />
            <mxPoint x="140" y="65" as="targetPoint" />
          </mxGeometry>
        </mxCell>
        <mxCell id="NGiJdgNhYvPCoxzRlDX6-10" value="" style="endArrow=none;html=1;rounded=0;exitX=0;exitY=0;exitDx=0;exitDy=0;entryX=1;entryY=1;entryDx=0;entryDy=0;strokeColor=#990000;" parent="NGiJdgNhYvPCoxzRlDX6-7" source="NGiJdgNhYvPCoxzRlDX6-8" target="NGiJdgNhYvPCoxzRlDX6-8" edge="1">
          <mxGeometry width="50" height="50" relative="1" as="geometry">
            <mxPoint x="115" y="90" as="sourcePoint" />
            <mxPoint x="140" y="65" as="targetPoint" />
          </mxGeometry>
        </mxCell>
        <mxCell id="NGiJdgNhYvPCoxzRlDX6-12" value="FANOUT&lt;br&gt;&lt;b&gt;alt-ex&lt;/b&gt;" style="text;html=1;strokeColor=none;fillColor=none;align=center;verticalAlign=middle;whiteSpace=wrap;rounded=0;" parent="NGiJdgNhYvPCoxzRlDX6-24" vertex="1">
          <mxGeometry y="40" width="60" height="30" as="geometry" />
        </mxCell>
        <mxCell id="-lw_jj8xd7Me2r0oytsQ-1" value="&lt;b&gt;Server&lt;/b&gt;" style="rounded=1;whiteSpace=wrap;html=1;fillColor=#bac8d3;strokeColor=#23445d;" parent="1" vertex="1">
          <mxGeometry x="40" y="340" width="80" height="40" as="geometry" />
        </mxCell>
        <mxCell id="-lw_jj8xd7Me2r0oytsQ-2" value="&lt;b&gt;UserApp&lt;/b&gt;" style="rounded=1;whiteSpace=wrap;html=1;fillColor=#d0cee2;strokeColor=#56517e;" parent="1" vertex="1">
          <mxGeometry x="40" y="140" width="80" height="40" as="geometry" />
        </mxCell>
        <mxCell id="hxEHT2BYzNBqHLVoitJe-1" style="edgeStyle=orthogonalEdgeStyle;rounded=0;orthogonalLoop=1;jettySize=auto;html=1;exitX=1;exitY=0.5;exitDx=0;exitDy=0;entryX=1;entryY=0.5;entryDx=0;entryDy=0;strokeWidth=3;strokeColor=#990000;" edge="1" parent="1" source="-lw_jj8xd7Me2r0oytsQ-3" target="NGiJdgNhYvPCoxzRlDX6-8">
          <mxGeometry relative="1" as="geometry">
            <Array as="points">
              <mxPoint x="800" y="70" />
              <mxPoint x="800" y="360" />
            </Array>
          </mxGeometry>
        </mxCell>
        <mxCell id="-lw_jj8xd7Me2r0oytsQ-3" value="&lt;b&gt;Worker 1&lt;br&gt;&lt;/b&gt;&lt;i&gt;leader&lt;/i&gt;" style="rounded=1;whiteSpace=wrap;html=1;fillColor=#b0e3e6;strokeColor=#0e8088;" parent="1" vertex="1">
          <mxGeometry x="640" y="50" width="80" height="40" as="geometry" />
        </mxCell>
        <mxCell id="-lw_jj8xd7Me2r0oytsQ-4" value="&lt;b&gt;Worker 2&lt;/b&gt;" style="rounded=1;whiteSpace=wrap;html=1;fillColor=#b1ddf0;strokeColor=#10739e;" parent="1" vertex="1">
          <mxGeometry x="640" y="110" width="80" height="40" as="geometry" />
        </mxCell>
        <mxCell id="-lw_jj8xd7Me2r0oytsQ-5" value="&lt;b&gt;Worker 3&lt;/b&gt;" style="rounded=1;whiteSpace=wrap;html=1;fillColor=#b1ddf0;strokeColor=#10739e;" parent="1" vertex="1">
          <mxGeometry x="640" y="170" width="80" height="40" as="geometry" />
        </mxCell>
        <mxCell id="-lw_jj8xd7Me2r0oytsQ-6" value="&lt;b&gt;Worker 4&lt;/b&gt;" style="rounded=1;whiteSpace=wrap;html=1;fillColor=#b1ddf0;strokeColor=#10739e;" parent="1" vertex="1">
          <mxGeometry x="640" y="230" width="80" height="40" as="geometry" />
        </mxCell>
        <mxCell id="-lw_jj8xd7Me2r0oytsQ-18" value="&lt;i&gt;&lt;font style=&quot;font-size: 10px;&quot;&gt;&quot;alimentar.#&quot;&lt;/font&gt;&lt;/i&gt;" style="text;html=1;strokeColor=none;fillColor=none;align=center;verticalAlign=middle;whiteSpace=wrap;rounded=0;rotation=-15;fontStyle=1" parent="1" vertex="1">
          <mxGeometry x="259" y="108" width="60" height="30" as="geometry" />
        </mxCell>
        <mxCell id="-lw_jj8xd7Me2r0oytsQ-19" value="&lt;i&gt;&lt;font style=&quot;font-size: 10px;&quot;&gt;&quot;casa.#&quot;&lt;/font&gt;&lt;/i&gt;" style="text;html=1;strokeColor=none;fillColor=none;align=center;verticalAlign=middle;whiteSpace=wrap;rounded=0;rotation=15;fontStyle=1" parent="1" vertex="1">
          <mxGeometry x="286" y="170" width="60" height="30" as="geometry" />
        </mxCell>
      </root>
    </mxGraphModel>
  </diagram>
</mxfile>
